<?xml version="1.0" encoding="UTF-8"?>
<svg width="100" height="34" viewBox="0 0 100 34" fill="none" xmlns="http://www.w3.org/2000/svg">
  <path d="M14.5 2H7V32H14.5C22.5 32 28 26.5 28 17C28 7.5 22.5 2 14.5 2ZM14.5 26H13V8H14.5C19 8 22 11.5 22 17C22 22.5 19 26 14.5 26Z" fill="#white"/>
  <path d="M38 2H32V32H38V2Z" fill="white"/>
  <path d="M57 2H51V14H44V2H38V32H44V20H51V32H57V2Z" fill="white"/>
  <path d="M77 2H63V8H67V32H73V8H77V2Z" fill="white"/>
  <path d="M97 2H83V8H87V32H93V8H97V2Z" fill="white"/>
</svg>
