<?xml version="1.0" encoding="UTF-8"?>
<svg width="128" height="34" viewBox="0 0 128 34" fill="none" xmlns="http://www.w3.org/2000/svg">
  <path d="M11.3 2.66666L24.6333 31.3333V2.66666H30V34H22.5667L9.36667 5.33332V34H4V2.66666H11.3Z" fill="#E50914"/>
  <path d="M44 2.66666V34H38.6667V2.66666H44Z" fill="#E50914"/>
  <path d="M70.6667 2.66666V7.99999H61.3333V34H56V7.99999H46.6667V2.66666H70.6667Z" fill="#E50914"/>
  <path d="M74.6667 2.66666H80.6667L86 21.3333L91.3333 2.66666H97.3333L88.6667 31.3333V34H83.3333V31.3333L74.6667 2.66666Z" fill="#E50914"/>
  <path d="M111.333 18.6667V34H106V2.66666H111.333V13.3333H120.667V2.66666H126V34H120.667V18.6667H111.333Z" fill="#E50914"/>
</svg>
